# xmcd
#
# Track frame offsets:
#	150
#	24482
#	43127
#	62452
#	91412
#	110182
#	134927
#	153655
#	174882
#	198322
#
# Disc length: 2914 seconds
#
# Revision: 1
# Processed by: cddbd v1.5.2PL0 Copyright (c) Steve Scherf et al.
# Submitted via: EasyCDDAExtractor 16.0.9.1
#
DISCID=8c0b600a
DTITLE=Khánh Hà and Tuấn Ngọc - KH21: Tình Ca Pham Duy
DYEAR=1994
DGENRE=Pop
TTITLE0=Khánh Hà and Tuấn Ngọc - Ngày Đó Chúng Mình
TTITLE1=Khánh Hà - Còn Gì Nữa Đâu
TTITLE2=Khánh Hà - Đường Em Đi
TTITLE3=Tuấn Ngọc - Tôi Còn Yêu Tôi Cứ Yêu
TTITLE4=Khánh Hà - Kiếp Nào Có Yêu Nhau
TTITLE5=Khánh Hà - Mùa Thu Paris
TTITLE6=Khánh Hà and Tuấn Ngọc - Hạ Hồng
TTITLE7=Khánh Hà - Cành Hoa Trắng
TTITLE8=Tuấn Ngọc - Nắng Chiều Rực Rỡ
TTITLE9=Khánh Hà - Ngày Tháng Hạ
EXTD=
EXTT0=
EXTT1=
EXTT2=
EXTT3=
EXTT4=
EXTT5=
EXTT6=
EXTT7=
EXTT8=
EXTT9=
PLAYORDER=
